<svg xmlns="http://www.w3.org/2000/svg" preserveAspectRatio="xMidYMid meet" viewBox="17.788863109048723 34.518 858.0510440835267 479.06800000000004" version="1.0" style="max-height: 500px" width="858.0510440835267" height="479.06800000000004">
<metadata fill="#ffffff">
Created by potrace 1.16, written by Peter Selinger 2001-2019
</metadata>
<g stroke="none" fill="#ffffff" transform="translate(0.000000,523.000000) scale(0.100000,-0.100000)">
<path d="M8931 5201 l29 -29 0 -2586 0 -2586 30 0 30 0 0 2615 0 2615 -59 0&#10;-59 0 29 -29z" fill="#ffffff"/>
<path d="M4133 4587 c-171 -84 -411 -199 -533 -257 -247 -117 -230 -102 -260&#10;-240 -11 -47 -35 -152 -54 -235 -146 -632 -189 -837 -181 -850 6 -7 176 -220&#10;379 -474 l369 -461 615 -2 c338 -2 617 -1 621 2 6 5 229 283 579 724 117 147&#10;181 235 177 245 -2 9 -32 138 -66 286 -34 149 -72 315 -84 370 -13 55 -44 192&#10;-69 304 -25 112 -50 209 -56 216 -5 6 -43 27 -82 45 -40 18 -280 133 -534 256&#10;-253 123 -472 224 -485 223 -13 0 -164 -69 -336 -152z m425 24 c43 -22 194&#10;-95 337 -164 143 -69 335 -161 428 -205 92 -44 167 -83 167 -85 0 -5 -94 -78&#10;-137 -107 -12 -8 -171 -125 -353 -260 -182 -135 -340 -252 -353 -260 -12 -8&#10;-57 -41 -100 -73 l-79 -59 -21 20 c-21 19 -185 140 -712 525 -143 105 -266&#10;196 -274 203 -13 11 -6 17 45 40 69 31 519 248 779 376 99 48 184 88 188 88 5&#10;0 43 -18 85 -39z m-46 -1298 c20 -43 72 -157 116 -253 44 -96 118 -258 165&#10;-360 46 -102 106 -232 131 -290 26 -58 63 -138 83 -178 19 -40 33 -75 31 -78&#10;-3 -2 -259 -3 -570 -2 l-565 3 63 135 c34 74 82 180 107 235 67 147 193 425&#10;289 635 47 102 88 195 92 208 4 12 11 22 15 22 4 0 23 -35 43 -77z" fill="#ffffff"/>
<path d="M5470 1127 c0 -338 2 -616 4 -618 2 -2 72 -3 155 -1 l151 3 0 615 0&#10;614 -155 0 -155 0 0 -613z" fill="#ffffff"/>
<path d="M855 1665 c-120 -26 -173 -53 -245 -124 -113 -111 -160 -246 -160&#10;-457 0 -205 45 -340 150 -445 84 -85 193 -132 338 -145 l73 -7 102 -128 102&#10;-129 187 0 c104 0 188 4 188 9 0 5 -24 35 -52 68 -92 104 -203 234 -206 243&#10;-2 4 19 24 45 43 56 41 104 104 137 179 44 102 51 145 51 313 -1 174 -14 244&#10;-62 339 -31 61 -133 165 -191 195 -108 55 -319 77 -457 46z m254 -260 c42 -21&#10;88 -76 107 -125 24 -66 29 -286 8 -362 -31 -107 -109 -168 -218 -168 -72 0&#10;-126 27 -166 82 -45 62 -60 125 -60 253 0 201 54 305 174 336 40 10 122 2 155&#10;-16z" fill="#ffffff"/>
<path d="M7250 1659 c0 -11 -99 -323 -195 -614 -97 -295 -165 -512 -165 -529&#10;0 -14 5 -17 23 -12 12 3 87 6 167 6 l146 0 18 71 c10 38 22 86 28 105 l9 34&#10;191 -2 191 -3 25 -103 26 -102 168 0 c114 0 168 3 168 11 0 6 -11 43 -24 82&#10;-13 40 -94 288 -181 552 -86 264 -160 487 -164 495 -7 12 -44 15 -220 18 -155&#10;2 -211 -1 -211 -9z m286 -457 c30 -117 54 -214 54 -217 0 -3 -54 -5 -120 -5&#10;-66 0 -120 2 -120 4 0 9 112 452 117 466 5 11 8 8 10 -10 3 -14 29 -121 59&#10;-238z" fill="#ffffff"/>
<path d="M8190 1613 c0 -32 -1 -292 -1 -578 l0 -520 155 -3 156 -3 0 581 0&#10;580 -155 0 -155 0 0 -57z" fill="#ffffff"/>
<path d="M4856 1538 c-59 -138 -62 -142 -129 -192 l-67 -49 0 -64 0 -63 55 0&#10;55 0 0 -220 c0 -120 5 -242 11 -270 14 -66 62 -127 124 -159 46 -24 59 -26&#10;170 -25 93 1 132 6 175 21 l55 20 3 111 c1 62 -1 112 -5 112 -4 -1 -35 -7 -68&#10;-15 -33 -8 -75 -12 -93 -9 -58 11 -62 27 -62 241 l0 193 110 0 110 0 0 115 0&#10;115 -110 0 -110 0 0 90 0 90 -103 0 -103 0 -18 -42z" fill="#ffffff"/>
<path d="M3164 1411 c-175 -28 -286 -128 -330 -299 -20 -75 -19 -241 1 -317&#10;39 -147 138 -242 297 -287 102 -29 297 -22 408 15 l75 24 3 116 3 116 -54 -23&#10;c-68 -31 -191 -50 -267 -43 -92 8 -148 51 -164 125 l-8 32 276 0 276 0 0 103&#10;c-1 104 -16 203 -40 247 -41 79 -127 149 -213 175 -57 17 -199 25 -263 16z&#10;m162 -217 c36 -17 74 -76 74 -114 0 -19 -6 -20 -130 -20 l-130 0 0 28 c0 60&#10;64 121 128 122 13 0 40 -7 58 -16z" fill="#ffffff"/>
<path d="M4110 1414 c-128 -26 -201 -73 -237 -151 -46 -100 -24 -230 50 -301&#10;31 -29 183 -112 206 -112 7 0 34 -11 62 -25 59 -30 81 -67 56 -92 -33 -33&#10;-273 -8 -358 37 -36 20 -39 13 -39 -113 l0 -123 73 -18 c169 -43 404 -29 504&#10;30 75 44 123 136 123 238 0 144 -85 231 -312 316 -53 20 -98 52 -98 70 0 21&#10;34 40 72 40 48 0 148 -25 200 -50 29 -14 40 -15 47 -6 10 11 67 142 77 176 5&#10;17 -44 40 -141 65 -61 16 -240 28 -285 19z" fill="#ffffff"/>
<path d="M1762 1063 c4 -322 5 -341 26 -395 15 -36 38 -71 68 -98 67 -62 103&#10;-74 219 -75 117 0 165 17 238 84 24 23 46 41 49 41 3 0 13 -25 23 -55 l17 -55&#10;119 0 119 0 0 445 0 445 -154 0 -154 0 -5 -262 c-4 -270 -10 -314 -48 -362&#10;-29 -37 -93 -52 -137 -32 -63 30 -71 75 -71 414 l-1 242 -156 0 -156 0 4 -337z" fill="#ffffff"/>
<path d="M5890 1396 c0 -7 318 -801 336 -842 13 -27 13 -35 -2 -70 -19 -46&#10;-57 -90 -98 -111 -22 -12 -45 -14 -93 -9 l-64 7 3 -123 3 -123 104 -3 c187 -5&#10;294 49 380 192 31 52 120 275 212 531 22 61 46 124 54 142 8 17 15 34 15 37 0&#10;3 29 84 65 181 36 96 65 180 65 185 0 16 -310 13 -314 -2 -2 -7 -38 -128 -80&#10;-268 -41 -140 -79 -271 -84 -290 l-9 -35 -8 40 c-7 40 -69 258 -129 455 l-32&#10;105 -162 3 c-89 1 -162 0 -162 -2z" fill="#ffffff"/>
</g>
</svg>